<svg width="48" height="48" viewBox="0 0 48 48" fill="none" xmlns="http://www.w3.org/2000/svg">
<rect x="4" y="4" width="40" height="40" rx="20" fill="#FFF5EC"/>
<path d="M24 15C20.7 15 18 17.7 18 21V24.4C18 25.3 17.7 26.2 17.2 27L15.9 29.1C15.5 29.8 16 30.7 16.8 30.7H31.2C32 30.7 32.5 29.8 32.1 29.1L30.8 27C30.3 26.2 30 25.3 30 24.4V21C30 17.7 27.3 15 24 15Z" stroke="#FE8008" stroke-width="2.2" stroke-linejoin="round"/>
<path d="M21.5 33C22 34.2 23 35 24 35C25 35 26 34.2 26.5 33" stroke="#FE8008" stroke-width="2.2" stroke-linecap="round"/>
</svg>
